<?xml version="1.0" encoding="utf-8"?>
<!-- Generator: Adobe Illustrator 24.0.0, SVG Export Plug-In . SVG Version: 6.00 Build 0)  -->
<svg version="1.1" id="Layer_1" xmlns="http://www.w3.org/2000/svg" xmlns:xlink="http://www.w3.org/1999/xlink" x="0px" y="0px"
	 viewBox="0 0 371 180" style="enable-background:new 0 0 371 180;" xml:space="preserve">
<style type="text/css">
	.st0{fill:#FFFFFF;}
	.st1{opacity:0.4;fill:#FFFFFF;}
</style>
<path class="st0" d="M339.29,59.75c-26.18,0-39.28-3.03-62.49,43.98c-23.2,47.02-37.49,57.73-36.9,30.95s1.19-44.04-10.72-44.04
	c-11.9,0-45.82,56.54-61.89,56.54c-16.07,0,24.4-66.06,3.57-79.75c-9.24-6.07-42.14-10-76.1-12.16
	C109.28,29.29,123,6.64,123.64,4.56c1.26-4.13-26.67-6.82-30.75-0.82C91.15,6.29,76.28,27.52,61.35,53.7
	C31.67,52.78,7.48,53.27,6.6,54.92c-2.18,4.04-17.27,27.38,8.93,26.78c6.58-0.15,18.1-0.76,31.74-1.49
	c-14,28.77-23.59,58.06-14.48,72.91c20.84,33.92,63.09,25.59,74.4,25.59s29.16-0.59,23.81-11.31c-5.35-10.71-2.38-14.88-22.62-14.88
	s-55.35,4.18-47.02-27.37c2.9-10.99,11.19-28.47,20.82-46.74c33.29-1.57,65.9-2.46,67.87,0.85c3.56,6.01-16.07,54.81-13.69,69.1
	c2.38,14.28,7.14,30.35,21.42,30.35c14.29,0,39.88-20.83,55.95-44.04c-1.2,24.99,13.68,44.04,23.81,44.04
	c10.11,0,30.35-16.07,45.23-41.66c14.88-25.6,23.21-50.59,33.92-51.18c10.72-0.59,41.69,7.38,49.4-6.61
	C377.24,59.02,365.48,59.75,339.29,59.75"/>
<path class="st1" d="M315.81,100.59c-2.3,0.48-15.63,16.41-4.69,14.45c10.93-1.95,38.08-7.85,31.05,0.17
	c-7.02,8.03-40.62,30.88-40.82,38.3c-0.19,7.42,3.32,13.67,16.01,12.69c12.7-0.98,38.48-1.42,41.21-1.81
	c2.73-0.39,13.87-12.1,11.33-14.26c-2.54-2.15-46.68,0.84-46.68-0.72s31.44-20.8,34.96-27.1c3.52-6.3,9.57-27.59-17.18-25.44
	C314.25,99.03,319.52,99.8,315.81,100.59"/>
</svg>
